<svg xmlns="http://www.w3.org/2000/svg" viewBox="0 0 2250 3000" width="2250" height="3000"><g transform="translate(170.25 1683.75) rotate(-90.00000000000001 511.875 498.375) scale(1.8147380661583923 1.8151770104895104)"><svg width="564.131" height="549.12" viewBox="0 0 564.131 549.12"><path d="m329.872 271.507 4.324-54.695-36.275-2.862a129.502 129.502 0 0 0-14.553-44.831l27.666-23.619-35.625-41.728-27.666 23.619c-12.777-9.81-27.048-16.961-41.994-21.404l2.862-36.275-54.704-4.316-2.855 36.284a129.24 129.24 0 0 0-44.831 14.554L82.594 88.559l-41.728 35.625 23.627 27.675c-9.801 12.77-16.952 27.04-21.395 41.987l-36.291-2.864L2.5 245.678l36.275 2.862c2.05 15.157 6.869 30.674 14.553 44.831l-27.675 23.627 35.625 41.728 27.675-23.627c12.777 9.81 27.048 16.961 41.994 21.404l-2.862 36.275 54.687 4.315 2.862-36.275c15.458-2.044 30.674-6.868 44.831-14.553l23.627 27.675 41.728-35.625-23.627-27.675a129.244 129.244 0 0 0 21.404-41.994l36.275 2.862zm-123.514 4.259c-24.589 20.993-61.541 18.077-82.533-6.512-20.993-24.589-18.077-61.541 6.512-82.533 24.589-20.993 61.541-18.077 82.533 6.512 20.993 24.589 18.077 61.541-6.512 82.533z" fill="#fff"/><path d="M182.772 399.592c-.065 0-.131-.003-.197-.008l-54.688-4.315a2.5 2.5 0 0 1-2.295-2.688l2.704-34.273c-14.19-4.452-27.375-11.172-39.249-20.003L62.9 360.627a2.504 2.504 0 0 1-3.525-.278L23.75 318.62a2.498 2.498 0 0 1 .278-3.524l26.147-22.322c-6.714-12.865-11.388-27.27-13.595-41.899L2.3 248.17a2.5 2.5 0 0 1-2.295-2.688l4.307-54.695c.052-.661.365-1.274.869-1.705s1.158-.638 1.82-.591l34.291 2.705c4.45-14.186 11.168-27.369 19.994-39.24l-22.322-26.147a2.5 2.5 0 0 1 .278-3.524L80.97 86.66a2.498 2.498 0 0 1 3.525.278l22.322 26.146a131.335 131.335 0 0 1 41.899-13.602l2.697-34.28a2.498 2.498 0 0 1 2.689-2.296l54.704 4.316a2.5 2.5 0 0 1 2.295 2.688l-2.704 34.273c14.19 4.452 27.375 11.172 39.249 20.003l26.138-22.314a2.5 2.5 0 0 1 3.524.278l35.625 41.728a2.498 2.498 0 0 1-.278 3.524l-26.138 22.314c6.861 13.114 11.43 27.188 13.6 41.901l34.274 2.704a2.498 2.498 0 0 1 2.296 2.689l-4.324 54.694c-.109 1.377-1.325 2.394-2.689 2.295l-34.272-2.704a131.264 131.264 0 0 1-20.004 39.248l22.323 26.147a2.5 2.5 0 0 1-.278 3.524l-41.728 35.625a2.498 2.498 0 0 1-3.525-.278l-22.323-26.146c-13.111 6.859-27.188 11.429-41.899 13.6l-2.705 34.273a2.502 2.502 0 0 1-2.492 2.304zm-51.999-9.111 49.703 3.923 2.666-33.782a2.5 2.5 0 0 1 2.165-2.282c15.504-2.051 30.297-6.854 43.966-14.272a2.503 2.503 0 0 1 3.094.574l22.004 25.773 37.925-32.379-22.004-25.773a2.5 2.5 0 0 1-.082-3.146 126.365 126.365 0 0 0 20.99-41.183 2.507 2.507 0 0 1 2.594-1.781l33.782 2.666 3.93-49.71-33.782-2.666a2.5 2.5 0 0 1-2.282-2.164c-2.05-15.505-6.852-30.298-14.272-43.968a2.5 2.5 0 0 1 .574-3.094l25.764-21.996-32.378-37.925-25.764 21.996a2.5 2.5 0 0 1-3.146.082c-12.335-9.472-26.192-16.534-41.184-20.991a2.5 2.5 0 0 1-1.78-2.593l2.665-33.782-49.718-3.923-2.659 33.79a2.499 2.499 0 0 1-2.166 2.282 126.405 126.405 0 0 0-43.965 14.272 2.5 2.5 0 0 1-3.094-.574L82.316 92.082l-37.925 32.379 22.003 25.773c.766.897.8 2.209.082 3.146-9.467 12.334-16.526 26.188-20.982 41.176a2.504 2.504 0 0 1-2.593 1.78l-33.799-2.667-3.915 49.711 33.783 2.666a2.501 2.501 0 0 1 2.281 2.157c2.083 15.404 7.019 30.61 14.273 43.975a2.5 2.5 0 0 1-.574 3.094l-25.773 22.003 32.378 37.926 25.773-22.004a2.5 2.5 0 0 1 3.146-.082c12.335 9.472 26.192 16.534 41.184 20.991a2.5 2.5 0 0 1 1.78 2.593l-2.666 33.782zm37.673-98.191c-1.627 0-3.26-.064-4.9-.193-16.254-1.283-31.036-8.818-41.623-21.219-10.586-12.4-15.71-28.181-14.428-44.435 1.282-16.255 8.818-31.037 21.218-41.623 25.598-21.854 64.204-18.808 86.058 6.79 21.853 25.597 18.804 64.203-6.79 86.058-11.149 9.519-25.033 14.622-39.535 14.622zm-.14-117.063c-12.875 0-25.809 4.399-36.347 13.396-11.384 9.719-18.302 23.29-19.48 38.213s3.527 29.411 13.246 40.796 23.291 18.303 38.213 19.479c14.927 1.179 29.411-3.527 40.796-13.246 23.501-20.063 26.297-55.507 6.233-79.009-11.068-12.964-26.82-19.629-42.662-19.629z"/><path d="m496.248 204.778 29.527-18.119-12.02-19.581a81.767 81.767 0 0 0 17.476-24.09l22.338 5.345 8.061-33.693-22.338-5.345a81.78 81.78 0 0 0-4.68-29.391l19.581-12.02-18.127-29.528-19.582 12.027a81.63 81.63 0 0 0-24.09-17.476l5.346-22.346L464.047 2.5l-5.346 22.346a81.79 81.79 0 0 0-29.384 4.682l-12.025-19.59-29.521 18.128 12.02 19.581c-6.975 6.679-13.105 14.906-17.476 24.09l-22.345-5.346-8.061 33.693 22.346 5.346a81.78 81.78 0 0 0 4.68 29.391l-19.581 12.02 18.121 29.52 19.581-12.02a81.767 81.767 0 0 0 24.09 17.476l-5.346 22.346 33.693 8.061 5.346-22.346a81.631 81.631 0 0 0 29.391-4.68l12.02 19.581zm-48.076-61.466c-19.854-4.75-32.098-24.696-27.348-44.551 4.75-19.854 24.696-32.098 44.551-27.348 19.854 4.75 32.098 24.696 27.348 44.55s-24.696 32.098-44.55 27.348z" fill="#6F5490"/><path d="M449.491 214.724a2.5 2.5 0 0 1-.582-.068l-33.693-8.062a2.501 2.501 0 0 1-1.85-3.014l4.881-20.4a83.916 83.916 0 0 1-21.588-15.663l-17.877 10.975a2.5 2.5 0 0 1-3.438-.823l-18.121-29.52a2.5 2.5 0 0 1 .822-3.439l17.878-10.974a83.94 83.94 0 0 1-4.197-26.341l-20.4-4.881a2.501 2.501 0 0 1-1.85-3.014l8.061-33.692a2.499 2.499 0 0 1 3.013-1.85l20.403 4.882c3.979-7.842 9.348-15.238 15.665-21.583L385.64 29.373a2.5 2.5 0 0 1 .823-3.438l29.521-18.128a2.502 2.502 0 0 1 3.439.823l10.98 17.887a83.785 83.785 0 0 1 26.333-4.198l4.882-20.401a2.499 2.499 0 0 1 3.013-1.85l33.692 8.062a2.501 2.501 0 0 1 1.85 3.014l-4.881 20.4a83.8 83.8 0 0 1 21.589 15.662l17.878-10.979a2.497 2.497 0 0 1 3.439.822l18.126 29.528a2.5 2.5 0 0 1-.822 3.439L537.624 80.99a83.94 83.94 0 0 1 4.197 26.341l20.393 4.879a2.5 2.5 0 0 1 1.85 3.014l-8.062 33.692a2.502 2.502 0 0 1-3.013 1.85l-20.394-4.88a83.932 83.932 0 0 1-15.663 21.589l10.974 17.878a2.504 2.504 0 0 1-.824 3.439l-29.526 18.119a2.501 2.501 0 0 1-3.438-.823l-10.974-17.877a83.802 83.802 0 0 1-26.202 4.196h-.139l-4.881 20.401a2.499 2.499 0 0 1-2.431 1.918zm-30.68-12.411 28.83 6.898 4.765-19.915a2.5 2.5 0 0 1 2.431-1.918h.064a78.808 78.808 0 0 0 28.491-4.538 2.505 2.505 0 0 1 2.966 1.049l10.712 17.45 25.265-15.504-10.712-17.45a2.5 2.5 0 0 1 .407-3.118 79.002 79.002 0 0 0 16.942-23.354 2.503 2.503 0 0 1 2.839-1.357l19.907 4.764 6.898-28.83-19.907-4.763a2.499 2.499 0 0 1-1.917-2.495 79.057 79.057 0 0 0-4.538-28.494 2.5 2.5 0 0 1 1.048-2.965l17.45-10.711-15.51-25.268-17.452 10.718a2.5 2.5 0 0 1-3.12-.407 78.862 78.862 0 0 0-23.352-16.94 2.5 2.5 0 0 1-1.357-2.84l4.764-19.914-28.83-6.898-4.765 19.915a2.476 2.476 0 0 1-2.495 1.917 79.1 79.1 0 0 0-28.486 4.54 2.497 2.497 0 0 1-2.965-1.049l-10.718-17.459-25.26 15.512 10.711 17.451a2.499 2.499 0 0 1-.401 3.113c-7.008 6.711-12.869 14.788-16.948 23.358a2.504 2.504 0 0 1-2.839 1.357l-19.915-4.766-6.897 28.83 19.914 4.765a2.499 2.499 0 0 1 1.917 2.495 79.057 79.057 0 0 0 4.538 28.494 2.5 2.5 0 0 1-1.048 2.965l-17.45 10.711 15.505 25.259 17.45-10.712a2.5 2.5 0 0 1 3.119.407 79.003 79.003 0 0 0 23.354 16.941 2.5 2.5 0 0 1 1.357 2.84l-4.764 19.914zm38.036-55.471c-3.081 0-6.185-.364-9.257-1.099-10.252-2.453-18.935-8.751-24.45-17.734-5.515-8.984-7.201-19.577-4.748-29.829s8.75-18.935 17.734-24.449 19.577-7.197 29.829-4.749c10.252 2.453 18.935 8.751 24.45 17.735 5.515 8.983 7.201 19.577 4.748 29.829s-8.751 18.935-17.734 24.449c-6.291 3.862-13.373 5.847-20.572 5.847zm-.138-73.956c-6.289 0-12.472 1.732-17.967 5.105-7.845 4.816-13.346 12.399-15.488 21.353-2.142 8.952-.669 18.203 4.146 26.049 4.816 7.846 12.399 13.346 21.352 15.487 8.951 2.144 18.203.669 26.049-4.146 7.846-4.816 13.346-12.399 15.488-21.353 2.142-8.953.669-18.204-4.146-26.05-4.816-7.846-12.399-13.346-21.352-15.487a34.715 34.715 0 0 0-8.083-.959z"/><path d="m399.387 546.62 27.566-3.53-2.344-18.282a65.6 65.6 0 0 0 20.718-11.866l14.58 11.266 16.993-21.991-14.58-11.266a65.616 65.616 0 0 0 6.256-23.041l18.282-2.344-3.535-27.57-18.285 2.349a65.468 65.468 0 0 0-11.866-20.718l11.27-14.585-21.991-16.993-11.27 14.585a65.598 65.598 0 0 0-23.036-6.252l-2.345-18.29-27.565 3.538 2.344 18.282c-7.302 2.589-14.495 6.587-20.718 11.866l-14.585-11.27-16.993 21.991 14.585 11.27a65.616 65.616 0 0 0-6.256 23.041l-18.282 2.344 3.534 27.561 18.282-2.344a65.6 65.6 0 0 0 11.866 20.718l-11.27 14.585 21.991 16.993 11.27-14.585a65.487 65.487 0 0 0 23.041 6.256l2.344 18.282zm-14.924-60.796c-12.959-10.014-15.346-28.637-5.333-41.595 10.014-12.959 28.637-15.346 41.595-5.333 12.959 10.014 15.346 28.636 5.333 41.595-10.014 12.959-28.636 15.346-41.595 5.333z" fill="#cad5f3"/><path d="M399.384 549.12a2.501 2.501 0 0 1-2.477-2.182l-2.09-16.305a67.704 67.704 0 0 1-20.056-5.445l-10.051 13.007a2.495 2.495 0 0 1-1.66.951 2.51 2.51 0 0 1-1.847-.501l-21.991-16.993a2.501 2.501 0 0 1-.449-3.507l10.051-13.008a67.801 67.801 0 0 1-10.327-18.033l-16.305 2.09a2.492 2.492 0 0 1-2.797-2.161l-3.534-27.562c-.084-.658.096-1.322.501-1.847s1.002-.867 1.66-.951l16.305-2.091a67.84 67.84 0 0 1 5.444-20.056l-13.007-10.05a2.501 2.501 0 0 1-.45-3.507l16.993-21.991a2.5 2.5 0 0 1 3.507-.45l13.009 10.052c5.364-4.268 11.531-7.798 18.033-10.322l-2.091-16.311a2.5 2.5 0 0 1 2.161-2.798l27.565-3.538a2.497 2.497 0 0 1 2.798 2.161l2.092 16.314a67.817 67.817 0 0 1 20.051 5.439l10.051-13.007a2.495 2.495 0 0 1 1.66-.951 2.495 2.495 0 0 1 1.847.501l21.991 16.993a2.501 2.501 0 0 1 .45 3.507l-10.051 13.008a67.673 67.673 0 0 1 10.328 18.033l16.308-2.095a2.5 2.5 0 0 1 2.798 2.161l3.535 27.57c.084.658-.096 1.322-.501 1.847s-1.002.867-1.66.951l-16.305 2.091a67.832 67.832 0 0 1-5.444 20.056l13.003 10.047a2.501 2.501 0 0 1 .45 3.507l-16.993 21.99a2.499 2.499 0 0 1-3.506.45l-13.003-10.047a67.765 67.765 0 0 1-18.034 10.326l2.09 16.306a2.497 2.497 0 0 1-2.162 2.798l-27.566 3.53a2.48 2.48 0 0 1-.32.021zm-25.381-29.538c.366 0 .736.08 1.083.247a62.8 62.8 0 0 0 22.162 6.018 2.499 2.499 0 0 1 2.274 2.173l2.026 15.804 22.607-2.896-2.025-15.802a2.5 2.5 0 0 1 1.651-2.677 62.9 62.9 0 0 0 19.928-11.413 2.5 2.5 0 0 1 3.146-.072l12.603 9.737 13.936-18.034-12.603-9.737a2.5 2.5 0 0 1-.724-3.063 62.908 62.908 0 0 0 6.018-22.164 2.498 2.498 0 0 1 2.173-2.272l15.802-2.026-2.898-22.61-15.806 2.03a2.507 2.507 0 0 1-2.678-1.652 62.808 62.808 0 0 0-11.413-19.928 2.5 2.5 0 0 1-.072-3.146l9.742-12.607-18.035-13.936-9.742 12.606a2.5 2.5 0 0 1-3.062.725 62.92 62.92 0 0 0-22.16-6.014 2.5 2.5 0 0 1-2.273-2.173l-2.027-15.811-22.606 2.901 2.026 15.802a2.5 2.5 0 0 1-1.644 2.675c-7.281 2.581-14.175 6.529-19.936 11.416-.9.766-2.212.795-3.146.072l-12.607-9.741-13.936 18.035 12.606 9.74a2.501 2.501 0 0 1 .725 3.063 62.92 62.92 0 0 0-6.018 22.164 2.498 2.498 0 0 1-2.173 2.272l-15.802 2.026 2.897 22.602 15.802-2.025a2.504 2.504 0 0 1 2.677 1.651 62.932 62.932 0 0 0 11.413 19.929 2.5 2.5 0 0 1 .072 3.146l-9.741 12.607 18.035 13.936 9.742-12.606a2.497 2.497 0 0 1 1.979-.972zm28.525-25.063c-7.071 0-13.907-2.322-19.594-6.716-14.029-10.841-16.623-31.074-5.782-45.103 5.251-6.796 12.834-11.141 21.354-12.232 8.519-1.097 16.953 1.198 23.749 6.449 6.796 5.252 11.14 12.835 12.232 21.354 1.092 8.52-1.198 16.953-6.45 23.749-5.251 6.796-12.834 11.141-21.354 12.232a32.494 32.494 0 0 1-4.154.267zm.121-59.316c-1.164 0-2.334.074-3.508.225-7.194.923-13.598 4.591-18.033 10.33-9.155 11.848-6.964 28.935 4.884 38.089 5.738 4.436 12.86 6.367 20.055 5.447 7.194-.923 13.598-4.591 18.033-10.33 9.155-11.848 6.964-28.935-4.884-38.089-4.802-3.712-10.575-5.672-16.547-5.672z"/></svg></g><g transform="translate(1896.0 517.5) rotate(0.0 -640.875 1144.125) scale(-1.6346079045264004 1.6320558375996566)"><svg width="784.133" height="1402.066" viewBox="0 0 784.133 1402.066"><path d="M173.193 2.5h410.88c94.27 0 170.69 79.149 170.69 176.796v1043.47c0 97.65-76.42 176.8-170.69 176.8h-410.88c-94.271 0-170.693-79.15-170.693-176.8V179.296C2.5 81.649 78.922 2.5 173.193 2.5z" fill="#cad5f3"/><path d="M584.073 1402.066h-410.88C77.694 1402.066 0 1321.632 0 1222.766V179.296C0 80.432 77.694 0 173.193 0h410.88c95.497 0 173.19 80.432 173.19 179.296v1043.47c0 98.866-77.693 179.3-173.19 179.3zM173.193 5C80.451 5 5 83.189 5 179.296v1043.47c0 96.109 75.451 174.3 168.192 174.3h410.88c92.74 0 168.19-78.19 168.19-174.3V179.296C752.263 83.189 676.813 5 584.073 5z"/><path d="M754.763 244.296s26.87 0 26.87 26.87v80.6s0 26.87-26.87 26.87z" fill="#cad5f3"/><path d="M754.763 381.136a2.5 2.5 0 0 1-2.5-2.5v-134.34a2.5 2.5 0 0 1 2.5-2.5c.294 0 29.37.336 29.37 29.37v80.6c0 .293-.336 29.37-29.37 29.37zm2.5-134.16v129.071c21.521-1.566 21.866-23.327 21.87-24.286v-80.595c0-19.616-15.622-23.444-21.87-24.19z"/></svg></g><g transform="translate(1095.0 807.75) rotate(0.0 495.75 999.0) scale(1.3614867462732474 1.3594000677658893)"><svg width="728.248" height="1469.766" viewBox="0 0 728.248 1469.766"><path d="M372.667 1412.609c2.459.005 4.919.005 7.378 0 195.579-.374 345.369-174.205 317.703-367.817l-51.219-358.44c-17.993-125.917-133.52-219.983-270.172-219.983-136.652 0-252.18 94.066-270.172 219.983l-51.219 358.44C27.3 1238.404 177.09 1412.235 372.669 1412.609z" fill="#fff"/><path d="M117.695 824.541H87.887l23.955-171.211c1.18-5.397 3.787-7.532 5.785-12.738h26.059l-25.991 183.95z" fill="#92acef"/><path d="M376.356 1415.113c-1.231 0-2.463-.001-3.694-.004-47.94-.092-93.996-10.367-136.887-30.54-41.174-19.366-77.263-46.758-107.263-81.417-30.093-34.766-52.098-74.57-65.404-118.308-13.853-45.531-17.425-92.771-10.618-140.406l51.219-358.44c8.791-61.523 41.28-117.918 91.484-158.795 50.16-40.842 114.497-63.334 181.162-63.334s131.003 22.492 181.163 63.334c50.204 40.877 82.693 97.272 91.484 158.795l51.22 358.44c6.807 47.635 3.234 94.875-10.618 140.406-13.307 43.738-35.312 83.542-65.404 118.308-30 34.659-66.089 62.052-107.263 81.417-42.892 20.173-88.947 30.448-136.888 30.54-1.231.002-2.462.004-3.693.004zm0-946.244c-134.868 0-249.953 93.649-267.698 217.836l-51.219 358.44a319.924 319.924 0 0 0 74.854 254.735c60.484 69.875 148.099 110.052 240.379 110.229 2.457.005 4.913.005 7.368 0 92.281-.176 179.896-40.354 240.38-110.229a319.923 319.923 0 0 0 74.854-254.734l-51.22-358.44C626.309 562.519 511.224 468.87 376.357 468.87z"/><path d="M117.695 827.041H87.886a2.5 2.5 0 1 1 0-5h27.637l25.285-178.95h-23.181a2.5 2.5 0 1 1 0-5h26.059a2.5 2.5 0 0 1 2.476 2.849l-25.991 183.95a2.5 2.5 0 0 1-2.476 2.15z"/><path d="M291.292 506.321c0 62.019 159.309 63.089 159.309 0V363.035H291.292z" fill="#cad5f3"/><path d="M371.457 555.737c-21.334 0-41.306-4.284-56.236-12.063-17.29-9.007-26.429-21.924-26.429-37.354V363.034a2.498 2.498 0 0 1 2.499-2.5h159.31a2.5 2.5 0 0 1 2.5 2.5V506.32c0 33.953-42.321 49.417-81.644 49.417zm-77.666-190.203V506.32c0 29.16 39.071 44.417 77.666 44.417 36.914 0 76.644-13.899 76.644-44.417V365.534z"/><path d="M371.457 503.386c-21.334 0-41.306-4.284-56.236-12.063-17.29-9.007-26.429-21.924-26.429-37.354a2.5 2.5 0 1 1 5 0c0 29.16 39.07 44.417 77.665 44.417 20.396 0 39.317-4.046 53.278-11.392 10.659-5.609 23.365-15.891 23.365-33.024a2.5 2.5 0 1 1 5 0c0 33.952-42.321 49.417-81.644 49.417z"/><circle cx="376.381" cy="252.834" fill="#fff" r="193.249"/><path d="M529.855 292.922a2.499 2.499 0 0 1-2.206-3.672l139.57-263.034a2.498 2.498 0 0 1 3.38-1.036 2.498 2.498 0 0 1 1.036 3.38L532.066 291.593a2.498 2.498 0 0 1-2.21 1.329z"/><circle cx="669.427" cy="27.388" fill="#cad5f3" r="24.888"/><path d="M669.427 54.776c-15.103 0-27.389-12.286-27.389-27.388S654.324 0 669.427 0s27.388 12.286 27.388 27.388-12.286 27.388-27.388 27.388zm0-49.776c-12.345 0-22.389 10.043-22.389 22.388s10.044 22.388 22.389 22.388 22.388-10.043 22.388-22.388S681.772 5 669.427 5z"/><path d="m216.241 144.634 160.139 59.888c-19.52 70.272-77.105 159.089-166.367 146.665-17.071-28.814-26.881-62.435-26.881-98.353 0-40.09 12.208-77.327 33.109-108.2z" fill="#92acef"/><path d="M199.672 288.629c-3.947 0-8.113-.633-12.472-2.098a2.5 2.5 0 1 1 1.594-4.739c28.395 9.545 48.021-21.489 48.215-21.804a2.5 2.5 0 0 1 4.25 2.633c-.186.301-16.442 26.008-41.587 26.008z" fill="#fff"/><path d="M376.381 448.583c-107.937 0-195.749-87.813-195.749-195.749S268.444 57.085 376.381 57.085s195.749 87.813 195.749 195.75-87.813 195.749-195.749 195.749zm0-386.499c-105.18 0-190.749 85.57-190.749 190.75s85.569 190.749 190.749 190.749 190.749-85.57 190.749-190.749S481.561 62.085 376.381 62.085z"/><circle cx="529.858" cy="290.422" fill="#cad5f3" r="84.913"/><path d="M529.857 377.834c-48.199 0-87.412-39.213-87.412-87.413s39.213-87.413 87.412-87.413 87.413 39.213 87.413 87.413-39.213 87.413-87.413 87.413zm0-169.825c-45.442 0-82.412 36.97-82.412 82.413s36.97 82.413 82.412 82.413 82.413-36.97 82.413-82.413-36.971-82.413-82.413-82.413zM226.477 354.84c-5.555 0-11.158-.391-16.809-1.177a2.501 2.501 0 0 1-2.132-2.821 2.49 2.49 0 0 1 2.821-2.131c92.645 12.894 145.665-82.548 162.991-142.654l-157.983-59.081a2.5 2.5 0 0 1 1.752-4.683l160.14 59.887a2.5 2.5 0 0 1 1.533 3.011c-11.173 40.221-32.178 78.637-57.628 105.398-27.729 29.157-60.182 44.25-94.686 44.251z"/><circle cx="235.273" cy="197.87" fill="#fff" r="6.042"/><rect fill="#ef4910" height="24.439" rx="5.835" transform="matrix(-1 0 -0 -1 396.818 1190.834)" width="40.044" x="178.387" y="583.197"/><path d="M212.596 610.137h-28.373c-4.596 0-8.335-3.739-8.335-8.335v-12.769c0-4.596 3.739-8.335 8.335-8.335h28.373c4.597 0 8.336 3.739 8.336 8.335v12.769c0 4.596-3.739 8.335-8.336 8.335zm-28.373-24.439a3.339 3.339 0 0 0-3.335 3.335v12.769a3.339 3.339 0 0 0 3.335 3.335h28.373a3.339 3.339 0 0 0 3.336-3.335v-12.769a3.339 3.339 0 0 0-3.336-3.335z"/><rect fill="#fbb348" height="24.439" rx="5.835" transform="matrix(-1 -0 0 -1 279.916 1190.834)" width="27.241" x="126.338" y="583.197"/><path d="M147.743 610.137h-15.57c-4.596 0-8.335-3.739-8.335-8.335v-12.769c0-4.596 3.739-8.335 8.335-8.335h15.57c4.597 0 8.336 3.739 8.336 8.335v12.769c0 4.596-3.739 8.335-8.336 8.335zm-15.57-24.439a3.339 3.339 0 0 0-3.335 3.335v12.769a3.339 3.339 0 0 0 3.335 3.335h15.57a3.339 3.339 0 0 0 3.336-3.335v-12.769a3.339 3.339 0 0 0-3.336-3.335z"/><circle cx="375.508" cy="1117.026" fill="#cad5f3" r="350.24"/><path d="M375.508 1469.766c-47.618 0-93.813-9.327-137.303-27.721-42.004-17.766-79.728-43.2-112.121-75.594-32.395-32.395-57.828-70.118-75.595-112.122-18.394-43.489-27.721-89.685-27.721-137.303s9.327-93.814 27.721-137.303c17.767-42.004 43.2-79.727 75.595-112.122 32.394-32.394 70.117-57.828 112.121-75.594 43.489-18.395 89.685-27.721 137.303-27.721s93.814 9.327 137.304 27.721c42.004 17.766 79.728 43.2 112.121 75.594 32.395 32.395 57.828 70.118 75.595 112.122 18.394 43.489 27.721 89.685 27.721 137.303s-9.327 93.814-27.721 137.303c-17.767 42.004-43.2 79.728-75.595 112.122-32.394 32.394-70.117 57.828-112.121 75.594-43.489 18.395-89.686 27.721-137.304 27.721zm0-700.48c-191.744 0-347.739 155.996-347.739 347.74s155.995 347.74 347.739 347.74 347.74-155.996 347.74-347.74-155.995-347.74-347.74-347.74z"/><circle cx="375.508" cy="1117.026" fill="#fff" r="314.053"/><path d="M375.508 1433.579c-84.554 0-164.048-32.927-223.837-92.716s-92.716-139.283-92.716-223.837 32.927-164.047 92.716-223.836 139.283-92.716 223.837-92.716 164.048 32.927 223.837 92.716 92.717 139.282 92.717 223.836-32.928 164.048-92.717 223.837-139.282 92.716-223.837 92.716zm0-628.106c-171.791 0-311.553 139.762-311.553 311.553s139.762 311.553 311.553 311.553 311.554-139.762 311.554-311.553-139.763-311.553-311.554-311.553z"/><circle cx="375.508" cy="1117.026" fill="#cad5f3" r="100.112"/><path d="M375.508 1219.638c-56.58 0-102.611-46.032-102.611-102.612s46.031-102.612 102.611-102.612 102.612 46.031 102.612 102.612-46.031 102.612-102.612 102.612zm0-200.224c-53.823 0-97.611 43.789-97.611 97.612s43.788 97.612 97.611 97.612 97.612-43.789 97.612-97.612-43.789-97.612-97.612-97.612zm0-213.941a2.5 2.5 0 0 1-2.5-2.5v-36.187a2.5 2.5 0 1 1 5 0v36.187a2.5 2.5 0 0 1-2.5 2.5zm0 664.293a2.5 2.5 0 0 1-2.5-2.5v-36.187a2.5 2.5 0 1 1 5 0v36.187a2.5 2.5 0 0 1-2.5 2.5zm30.212-1.305a2.499 2.499 0 0 1-2.487-2.284l-3.123-36.057a2.501 2.501 0 0 1 2.274-2.707 2.504 2.504 0 0 1 2.706 2.275l3.123 36.057a2.501 2.501 0 0 1-2.493 2.716zM348.413 806.65a2.499 2.499 0 0 1-2.487-2.284l-3.122-36.058a2.501 2.501 0 0 1 2.274-2.707 2.494 2.494 0 0 1 2.706 2.275l3.122 36.058a2.501 2.501 0 0 1-2.493 2.716zm151.041 640.452a2.5 2.5 0 0 1-2.338-1.616l-12.785-33.788a2.5 2.5 0 1 1 4.676-1.769l12.785 33.788a2.5 2.5 0 0 1-2.338 3.385zM264.348 825.739a2.5 2.5 0 0 1-2.338-1.616l-12.784-33.787a2.5 2.5 0 1 1 4.676-1.769l12.784 33.787a2.5 2.5 0 0 1-2.338 3.385zm335.413 562.821a2.493 2.493 0 0 1-1.921-.899l-23.175-27.803a2.5 2.5 0 1 1 3.84-3.201l23.175 27.803a2.5 2.5 0 0 1-1.919 4.101zM174.433 878.296a2.493 2.493 0 0 1-1.921-.899l-23.175-27.803a2.5 2.5 0 1 1 3.84-3.201l23.175 27.803a2.5 2.5 0 0 1-1.919 4.101zm442.085 495.361a2.49 2.49 0 0 1-1.814-.78l-24.906-26.263a2.501 2.501 0 0 1 3.629-3.44l24.906 26.263a2.501 2.501 0 0 1-1.815 4.22zM159.405 891.658a2.487 2.487 0 0 1-1.813-.78l-24.907-26.263a2.5 2.5 0 0 1 3.627-3.44l24.907 26.263a2.5 2.5 0 0 1-1.814 4.22zm488.508 448.01a2.487 2.487 0 0 1-1.569-.556l-28.153-22.752a2.5 2.5 0 1 1 3.143-3.889l28.153 22.752a2.5 2.5 0 0 1-1.573 4.445zm-516.66-417.531a2.487 2.487 0 0 1-1.569-.556l-28.154-22.752a2.5 2.5 0 1 1 3.143-3.889l28.154 22.752a2.5 2.5 0 0 1-1.573 4.445zm581.088 293.37a2.52 2.52 0 0 1-.687-.096l-34.725-9.895a2.5 2.5 0 0 1 1.371-4.808l34.725 9.895a2.5 2.5 0 0 1-.684 4.904zm-638.94-182.065a2.52 2.52 0 0 1-.687-.096l-34.724-9.895a2.5 2.5 0 0 1 1.371-4.808l34.724 9.895a2.5 2.5 0 0 1-.684 4.904zm-10.024 51.364c-.092 0-.186-.005-.279-.015l-35.958-4a2.5 2.5 0 0 1 .553-4.969l35.958 4a2.5 2.5 0 0 1-.273 4.985zm660.227 73.44c-.092 0-.186-.005-.279-.015l-35.96-4a2.5 2.5 0 0 1-2.208-2.761 2.488 2.488 0 0 1 2.761-2.208l35.96 4a2.5 2.5 0 0 1-.273 4.985zm-682.957 63.931a2.501 2.501 0 0 1-.732-4.891l34.531-10.586a2.503 2.503 0 0 1 3.123 1.657 2.501 2.501 0 0 1-1.658 3.123l-34.531 10.586c-.244.075-.49.11-.733.11zm635.188-194.714a2.501 2.501 0 0 1-.732-4.891l34.532-10.586a2.501 2.501 0 0 1 3.123 1.657 2.501 2.501 0 0 1-1.658 3.123l-34.532 10.586c-.244.075-.49.11-.733.11zm-12.057-32.703a2.5 2.5 0 0 1-.994-4.795l33.156-14.351a2.501 2.501 0 0 1 1.986 4.589l-33.156 14.351c-.323.14-.66.206-.992.206zM54.084 1258.645a2.5 2.5 0 0 1-.994-4.795l33.156-14.351a2.5 2.5 0 0 1 1.986 4.589l-33.156 14.351c-.323.14-.66.206-.992.206zm41.329 71.151a2.5 2.5 0 0 1-1.503-4.499l28.932-21.719a2.5 2.5 0 0 1 3.002 3.999l-28.932 21.719c-.45.337-.977.5-1.499.5zm531.262-398.82a2.5 2.5 0 0 1-1.503-4.499l28.933-21.72a2.5 2.5 0 0 1 3.002 3.999l-28.933 21.72c-.45.337-.977.5-1.499.5zm-107.839-90.957a2.5 2.5 0 0 1-2.223-3.641l16.483-32.146a2.5 2.5 0 1 1 4.449 2.281l-16.483 32.146a2.498 2.498 0 0 1-2.227 1.36zM215.693 1431.18a2.5 2.5 0 0 1-2.223-3.641l16.483-32.146a2.5 2.5 0 1 1 4.449 2.281l-16.483 32.146a2.498 2.498 0 0 1-2.227 1.36zm249.198-612.779a2.5 2.5 0 0 1-2.398-3.212l10.281-34.635a2.5 2.5 0 0 1 4.793 1.423l-10.281 34.635a2.5 2.5 0 0 1-2.396 1.789zm-189.044 636.887a2.5 2.5 0 0 1-2.398-3.212l10.281-34.635a2.5 2.5 0 0 1 4.793 1.423l-10.281 34.635a2.5 2.5 0 0 1-2.396 1.789zM118.999 549.875c-.77 0-1.528-.354-2.019-1.022l-52.399-71.48a2.5 2.5 0 0 1 4.033-2.956l52.399 71.48a2.5 2.5 0 0 1-2.015 3.978zm-26.989 28.43c-.262 0-.527-.041-.79-.128l-76.755-25.563a2.5 2.5 0 1 1 1.58-4.744L92.8 573.433a2.5 2.5 0 0 1-.79 4.872zm-17.596 48.612c-.031 0-.063 0-.095-.002l-69.727-2.59a2.499 2.499 0 0 1-2.405-2.591c.051-1.379 1.206-2.469 2.591-2.405l69.727 2.59a2.5 2.5 0 0 1-.091 4.998z"/></svg></g><g transform="translate(420.75 852.0) rotate(0.0 234.75 234.75) scale(1.285780012488087 1.285780012488087)"><svg width="365.148" height="365.148" viewBox="0 0 365.148 365.148"><circle cx="182.574" cy="182.574" fill="#FFF" r="180.074"/><path d="M182.574 365.148C81.903 365.148 0 283.246 0 182.574S81.903 0 182.574 0s182.574 81.902 182.574 182.574-81.902 182.574-182.574 182.574zm0-360.148C84.659 5 5 84.659 5 182.574s79.659 177.574 177.574 177.574 177.574-79.659 177.574-177.574S280.489 5 182.574 5z" fill="#111"/></svg></g><g transform="translate(538.5 920.25) rotate(-44.0035135849774 118.125 118.125) scale(3.215160587915079 3.215160587915079)"><svg width="73.48" height="73.48" viewBox="0 0 73.48 73.48"><circle cx="10.984" cy="62.496" r="10.984" fill="#FF6996"/><path d="M42.836 72.496a6 6 0 0 1-6-6c0-16.46-13.392-29.852-29.852-29.852a6 6 0 0 1 0-12c23.077 0 41.852 18.775 41.852 41.852a6 6 0 0 1-6 6z" fill="#FF6996"/><path d="M67.48 72.496a6 6 0 0 1-6-6C61.48 36.447 37.033 12 6.983 12a6 6 0 0 1 .001-12C43.65 0 73.48 29.83 73.48 66.496a6 6 0 0 1-6 6z" fill="#FF6996"/></svg></g><g transform="translate(624.0 348.0) rotate(0.0 234.75 234.75) scale(1.285780012488087 1.285780012488087)"><svg width="365.148" height="365.148" viewBox="0 0 365.148 365.148"><circle cx="182.574" cy="182.574" fill="#FFF" r="180.074"/><path d="M182.574 365.148C81.903 365.148 0 283.246 0 182.574S81.903 0 182.574 0s182.574 81.902 182.574 182.574-81.902 182.574-182.574 182.574zm0-360.148C84.659 5 5 84.659 5 182.574s79.659 177.574 177.574 177.574 177.574-79.659 177.574-177.574S280.489 5 182.574 5z" fill="#111"/></svg></g><g transform="translate(748.5 416.25) rotate(0.0 112.125 156.375) scale(0.4390172278778387 0.43643594753000275)"><svg width="510.8" height="716.6" viewBox="0 0 510.8 716.6"><path d="M255.6 4.9C117.2 4.9 5.1 117.1 5.1 255.4c0 166.5 250.4 456.2 250.4 456.2S506 428.1 506 255.4C506 117 394 4.9 255.6 4.9zm-.1 384.5a134 134 0 1 1 134-134 134.008 134.008 0 0 1-134 134z" fill="#FF6996"/><g fill="none" fill-opacity="0"><path d="M255.5 716.6a5.007 5.007 0 0 1-3.8-1.7 1948.541 1948.541 0 0 1-125.6-166.1c-36.5-54.3-65.6-104.7-86.5-149.7C13.3 342.5 0 294.2 0 255.4A255.407 255.407 0 0 1 436 74.8a253.863 253.863 0 0 1 74.8 180.6c0 40.1-13.3 89.3-39.6 146.2-20.9 45.2-50 95.5-86.5 149.4a1820.592 1820.592 0 0 1-125.6 163.8 4.154 4.154 0 0 1-3.6 1.8zm0-706.7A245.482 245.482 0 0 0 10 255.4c0 84.8 67.6 203.3 124.4 287.8A1980.263 1980.263 0 0 0 255.5 704a1830.184 1830.184 0 0 0 121.1-158.6c36.2-53.4 65-103.2 85.7-148 25.6-55.6 38.7-103.3 38.7-142A245.482 245.482 0 0 0 255.5 9.9z"/><path d="M255.5 394.3c-76.6 0-139-62.3-139-139a139.087 139.087 0 0 1 139-139c76.6 0 139 62.3 139 139a139.087 139.087 0 0 1-139 139zm0-267.9c-71.1 0-129 57.9-129 129s57.9 129 129 129 129-57.9 129-129-57.9-129-129-129z"/></g></svg></g><g transform="translate(1161.75 191.25) rotate(0.0 234.75 234.75) scale(1.285780012488087 1.285780012488087)"><svg width="365.148" height="365.148" viewBox="0 0 365.148 365.148"><circle cx="182.574" cy="182.574" fill="#FFF" r="180.074"/><path d="M182.574 365.148C81.903 365.148 0 283.246 0 182.574S81.903 0 182.574 0s182.574 81.902 182.574 182.574-81.902 182.574-182.574 182.574zm0-360.148C84.659 5 5 84.659 5 182.574s79.659 177.574 177.574 177.574 177.574-79.659 177.574-177.574S280.489 5 182.574 5z" fill="#111"/></svg></g><g transform="translate(1297.5 266.25) rotate(0.0 99.75 141.375) scale(3.325 3.2877906976744184)"><svg width="60" height="86" viewBox="0 0 60 86"><path d="M30 0C19 0 10 9 10 20v17h6V20c0-7.7 6.3-14 14-14s14 6.3 14 14v17h6V20C50 9 41 0 30 0z" fill="#FF6996"/><path d="M58.2 86H1.8c-1-.1-1.8-.9-1.8-2V34c0-1.1.8-1.9 1.8-2h56.4c1.1.1 1.9.9 1.8 2v50c0 1.1-.8 1.9-1.8 2z" fill="#FF6996"/><g fill="#FFF"><path d="M30 48c-3.9 0-7 3.1-7 7s3.1 7 7 7 7-3.1 7-7-3.1-7-7-7z"/><path d="M34.9 70h-9.7C24 70 23 69 23 67.9v-.4L25.7 54h8.5L37 67.4c.2 1.2-.5 2.3-1.7 2.5-.2.1-.3.1-.4.1z"/></g></svg></g></svg>