<svg enable-background="new 0 0 335.074 335.436" height="336" viewBox="0 0 335.074 335.436" width="336" xmlns="http://www.w3.org/2000/svg"><path d="m330.447 171.334-37.403 8.036-16.419 17.921 37.403-8.036c1.047-.173 1.906-.644 2.524-1.319l16.419-17.921c-.619.675-1.477 1.145-2.524 1.319z" fill="#3658c1"/><path d="m276.624 198.291c-.353 0-.687-.188-.868-.503-.216-.378-.164-.852.13-1.173l16.419-17.921c.14-.153.324-.259.527-.302l37.403-8.036c.016-.003.031-.006.046-.009.79-.131 1.463-.478 1.947-1.004l.004-.004c.373-.407 1.005-.435 1.413-.062.407.373.435 1.006.062 1.413l-16.419 17.921c-.789.862-1.861 1.425-3.098 1.63l-37.357 8.027c-.069.015-.139.023-.209.023zm16.941-18.011-14.085 15.374 34.338-7.377c.838-.14 1.513-.489 1.997-1.017l13.415-14.642z" fill="#111"/><path d="m106.016 9.123c-.39-1.707.002-3.235.951-4.27l-16.42 17.922c-.948 1.035-1.34 2.562-.951 4.27l7.373 40.408 16.419-17.92z" fill="#3658c1"/><path d="m96.97 68.453c-.093 0-.186-.013-.277-.039-.365-.105-.639-.408-.707-.781l-7.373-40.408c-.441-1.927-.008-3.811 1.197-5.125l16.419-17.921c.373-.408 1.006-.435 1.413-.062s.435 1.006.062 1.413c-.755.823-1.014 2.052-.713 3.371.003.014.006.029.009.043l7.373 40.409c.056.308-.035.624-.246.855l-16.419 17.92c-.193.21-.462.325-.738.325zm7.939-59.874-13.624 14.871c-.754.823-1.014 2.052-.713 3.372l7.021 38.471 14.724-16.07-7.28-39.899c-.057-.25-.1-.499-.128-.745z" fill="#111"/><path d="m243.966 221.253-16.419 17.921c11.982-13.078 17.924-31.745 15.117-53.296-5.882-45.165-47.965-85.894-93.993-90.969-24.065-2.653-44.445 4.965-57.573 19.295l16.419-17.921c13.129-14.33 33.508-21.948 57.573-19.295 46.028 5.075 88.111 45.803 93.993 90.969 2.807 21.551-3.135 40.218-15.117 53.296" fill="#3658c1"/><path d="m227.547 240.174c-.241 0-.483-.087-.675-.263-.407-.373-.435-1.006-.062-1.413 12.252-13.373 17.53-32.014 14.863-52.491-5.817-44.664-47.586-85.085-93.111-90.104-22.705-2.503-43.383 4.413-56.726 18.977-.373.407-1.006.435-1.413.062s-.435-1.006-.062-1.413l16.419-17.921c13.778-15.038 35.07-22.188 58.42-19.613 46.385 5.114 88.946 46.311 94.875 91.834 2.745 21.072-2.714 40.285-15.372 54.101l-16.419 17.921c-.197.214-.466.323-.737.323zm-88.034-146.775c3.044 0 6.137.17 9.268.516 46.385 5.114 88.946 46.311 94.875 91.833 1.989 15.273-.332 29.57-6.579 41.543l6.151-6.714.737.676-.737-.676c12.251-13.373 17.53-32.014 14.863-52.491-5.817-44.664-47.586-85.085-93.111-90.104-22.708-2.503-43.384 4.413-56.726 18.977l-6.219 6.788c10.588-6.757 23.505-10.348 37.478-10.348z" fill="#111"/><path d="m309.469 275.485-16.419 17.921c-.967 1.056-2.445 1.52-4.031 1.346-.983-.108-2.007-.462-2.976-1.074l16.419-17.921c.97.611 1.994.965 2.976 1.074 1.587.174 3.064-.29 4.031-1.346" fill="#3658c1"/><path d="m289.666 295.787c-.249 0-.5-.014-.755-.042-1.159-.127-2.335-.55-3.4-1.221-.251-.158-.418-.419-.458-.713s.054-.59.254-.808l16.419-17.921c.327-.356.862-.428 1.271-.17.81.511 1.692.831 2.553.926 1.293.142 2.453-.232 3.182-1.026l.001-.001c.373-.407 1.004-.435 1.413-.062.407.373.435 1.006.062 1.413-.001.002-.003.003-.004.005l-16.415 17.916c-1.012 1.102-2.486 1.704-4.123 1.704zm-2-2.4c.484.191.977.317 1.463.371 1.294.142 2.455-.231 3.184-1.027l13.62-14.865c-.199-.004-.4-.018-.604-.04-.899-.099-1.807-.375-2.666-.807z" fill="#111"/><path d="m302.462 275.757-16.418 17.921-38.899-22.374 16.419-17.921z" fill="#3658c1"/><path d="m286.043 294.678c-.17 0-.342-.043-.498-.133l-38.898-22.374c-.263-.151-.443-.414-.49-.714-.046-.3.046-.605.251-.829l16.419-17.921c.316-.345.831-.425 1.236-.191l38.898 22.374c.263.151.443.414.49.714.046.3-.046.605-.251.829l-16.419 17.921c-.195.212-.464.324-.738.324zm-37.317-23.619 37.122 21.352 15.034-16.41-37.122-21.352z" fill="#111"/><path d="m25.629 59.954c-.169.184-.323.387-.459.608l-16.423 26.486 16.419-17.921 16.423-26.486c.136-.221.289-.423.459-.608z" fill="#3658c1"/><path d="m8.747 88.048c-.211 0-.424-.067-.603-.203-.412-.312-.518-.885-.246-1.324l16.422-26.486c.165-.268.357-.523.571-.756l16.414-17.915c.002-.002.003-.004.005-.006s0 0 .001-.001c.374-.407 1.006-.434 1.412-.061.407.373.435 1.006.062 1.413l-.004.005c-.126.138-.24.29-.341.452l-16.424 26.488c-.033.053-.071.103-.113.148l-16.419 17.922c-.196.214-.466.324-.737.324zm26.567-37.184-8.948 9.766v.001c-.128.139-.243.292-.344.455l-10.794 17.408 9.137-9.973zm-9.685 9.09h.01z" fill="#111"/><path d="m263.564 253.383-16.419 17.921c-7.421 6.236-15.996 11.155-25.473 14.6l16.419-17.921c9.477-3.445 18.052-8.364 25.473-14.6" fill="#3658c1"/><path d="m221.673 286.904c-.327 0-.642-.161-.832-.445-.256-.383-.217-.891.094-1.231l16.418-17.921c.109-.119.245-.209.396-.264 9.36-3.403 17.829-8.257 25.172-14.427.403-.339 1.001-.306 1.365.074.365.381.371.979.015 1.367l-16.419 17.921c-.029.032-.061.062-.094.09-7.521 6.32-16.193 11.291-25.774 14.774-.112.043-.227.062-.341.062zm16.99-18.065-13.344 14.565c7.768-3.26 14.861-7.562 21.132-12.824l9.418-10.279c-5.318 3.432-11.075 6.29-17.206 8.538z" fill="#111"/><path d="m61.259 107.186-16.419 17.921-33.996-30.302 16.419-17.921z" fill="#3658c1"/><path d="m44.84 126.107c-.237 0-.475-.084-.665-.253l-33.996-30.303c-.2-.178-.32-.429-.333-.696s.081-.529.261-.726l16.419-17.921c.37-.403.994-.435 1.403-.071l33.996 30.302c.2.178.32.429.333.696s-.081.529-.261.726l-16.419 17.921c-.198.216-.467.325-.738.325zm-32.574-31.374 32.503 28.972 15.068-16.446-32.503-28.972z" fill="#111"/><path d="m27.263 76.884-16.419 17.921c-2.576-2.13-3.497-5.512-2.097-7.757l16.419-17.921c-1.4 2.245-.479 5.627 2.097 7.757" fill="#3658c1"/><path d="m10.844 95.805c-.225 0-.451-.075-.637-.229-2.993-2.474-3.985-6.368-2.308-9.056.032-.052.07-.101.111-.146l16.419-17.921c.349-.381.931-.433 1.342-.121s.517.887.243 1.325c-1.13 1.812-.302 4.648 1.886 6.457.211.175.342.428.36.702.019.273-.075.542-.26.745l-16.419 17.919c-.196.215-.466.325-.737.325zm-1.293-8.154c-.941 1.606-.395 3.972 1.24 5.731l15.063-16.441c-1.298-1.344-2.09-2.976-2.296-4.579z" fill="#111"/><path d="m58.44 138.167-16.419 17.921c-.651-10.776.288-21.212 2.819-30.98l16.419-17.921c-2.531 9.767-3.47 20.204-2.819 30.98" fill="#3658c1"/><path d="m42.02 157.087c-.112 0-.225-.019-.334-.057-.378-.134-.64-.482-.664-.882-.659-10.92.299-21.448 2.85-31.291.041-.158.12-.304.231-.425l16.419-17.921c.31-.339.811-.423 1.215-.203.404.219.606.685.491 1.129-2.498 9.64-3.436 19.959-2.789 30.669.016.271-.078.536-.261.736l-16.419 17.921c-.194.21-.463.324-.739.324zm3.726-31.488c-2.268 8.854-3.223 18.277-2.845 28.048l14.516-15.844c-.532-9.392.135-18.491 1.985-27.109z" fill="#111"/><path d="m182.671 271.982-16.419 17.921c-11.162-1.948-22.357-5.438-33.239-10.37l16.419-17.921c10.882 4.932 22.077 8.422 33.239 10.37" fill="#3658c1"/><path d="m166.253 290.903c-.057 0-.115-.005-.172-.015-11.262-1.966-22.526-5.48-33.48-10.444-.292-.132-.503-.396-.567-.71s.026-.64.242-.876l16.419-17.921c.292-.319.757-.414 1.15-.235 10.8 4.895 21.902 8.359 32.998 10.296.36.063.657.317.775.663s.038.729-.209.998l-16.419 17.921c-.191.207-.46.323-.737.323zm-31.566-11.716c10.227 4.52 20.714 7.76 31.199 9.636l14.824-16.181c-10.439-1.974-20.865-5.273-31.03-9.821z" fill="#111"/><path d="m241.563 314.051-34.14 2.449-16.419 17.921 34.14-2.449c1.236-.091 2.256-.591 2.966-1.366l16.419-17.921c-.711.776-1.73 1.275-2.966 1.366z" fill="#3658c1"/><path d="m191.004 335.422c-.381 0-.732-.218-.9-.565-.178-.369-.114-.809.163-1.111l16.418-17.921c.172-.188.411-.304.666-.322l34.14-2.449c.942-.07 1.736-.429 2.296-1.04l.004-.004c.373-.407 1.005-.435 1.413-.062.407.373.435 1.005.062 1.413-.001.002-.003.003-.004.005l-16.415 17.917c-.912.996-2.167 1.579-3.629 1.687l-34.142 2.449c-.025.002-.048.003-.072.003zm16.887-17.953-14.453 15.775 31.633-2.27c.942-.07 1.738-.43 2.3-1.043l13.591-14.835zm33.672-3.418h.01z" fill="#111"/><path d="m200.232 311.668-16.419 17.921-17.56-39.686 16.418-17.921z" fill="#3658c1"/><path d="m183.813 330.589c-.054 0-.108-.004-.162-.013-.333-.055-.616-.273-.753-.582l-17.561-39.686c-.161-.363-.091-.787.177-1.08l16.419-17.921c.228-.249.567-.366.899-.311.333.055.616.273.753.582l17.56 39.686c.161.363.091.787-.177 1.08l-16.418 17.921c-.19.208-.459.324-.737.324zm-16.381-40.493 16.677 37.689 14.943-16.311-16.677-37.689z" fill="#111"/><path d="m207.423 316.501-16.419 17.921c-.348.026-.699.018-1.049-.021-2.569-.283-5.106-2.225-6.142-4.812l16.419-17.921c1.036 2.587 3.573 4.528 6.142 4.812.35.038.701.046 1.049.021" fill="#3658c1"/><path d="m190.599 335.436c-.249 0-.501-.014-.753-.042-2.948-.325-5.81-2.559-6.961-5.434-.143-.357-.069-.764.191-1.047l16.418-17.921c.232-.253.58-.369.917-.308.338.062.621.293.749.612.889 2.219 3.078 3.942 5.324 4.19.294.032.584.039.866.018.406-.029.794.192.973.561s.114.809-.163 1.112l-16.419 17.921c-.172.188-.41.303-.664.322-.157.01-.317.016-.478.016zm-5.601-5.66c1.008 1.945 3.014 3.404 5.067 3.631.164.018.326.028.486.029l14.777-16.129c-2.123-.523-4.108-1.99-5.326-3.908z" fill="#111"/><path d="m97.716 224.25-16.419 17.921c-8.382-9.003-15.64-18.846-21.571-29.24l16.419-17.921c5.93 10.394 13.189 20.237 21.571 29.24" fill="#3658c1"/><path d="m81.297 243.171c-.278 0-.543-.115-.732-.319-8.43-9.054-15.733-18.955-21.707-29.426-.215-.377-.162-.851.131-1.171l16.419-17.921c.216-.235.532-.354.849-.318.318.036.599.221.757.498 5.897 10.337 13.109 20.112 21.434 29.054.355.382.358.972.005 1.357l-16.419 17.921c-.188.206-.454.323-.733.324-.002.001-.003.001-.004.001zm-20.339-30.103c5.654 9.799 12.489 19.085 20.336 27.627l15.063-16.441c-7.848-8.526-14.703-17.789-20.396-27.562z" fill="#111"/><path d="m76.145 195.01-16.419 17.921-40.665-2.412 16.418-17.921z" fill="#3658c1"/><path d="m59.726 213.931c-.02 0-.039 0-.059-.002l-40.666-2.412c-.385-.023-.723-.265-.867-.623-.145-.358-.071-.767.189-1.051l16.419-17.921c.203-.222.489-.342.797-.323l40.666 2.412c.385.023.723.265.867.623.145.358.071.767-.189 1.051l-16.419 17.921c-.19.208-.458.325-.738.325zm-38.509-4.286 38.094 2.26 14.678-16.021-38.093-2.26z" fill="#111"/><path d="m17.689 152.271c-.573-1.873-.208-3.618.842-4.764l-16.418 17.921c-1.05 1.147-1.415 2.891-.842 4.764l10.911 34.995 16.419-17.92z" fill="#3658c1"/><path d="m12.181 206.187c-.073 0-.146-.008-.218-.024-.349-.078-.63-.337-.737-.678l-10.91-34.995c-.658-2.152-.262-4.295 1.059-5.738l16.419-17.921c.373-.408 1.006-.435 1.413-.062s.435 1.006.062 1.413l-.003.003c-.835.914-1.068 2.33-.622 3.789l10.91 34.994c.106.34.023.711-.217.973l-16.419 17.92c-.192.211-.46.326-.737.326zm4.279-54.938-13.61 14.855c-.838.915-1.071 2.334-.623 3.796l10.392 33.33 14.856-16.214-10.739-34.447c0-.001-.001-.003-.001-.005-.137-.44-.228-.881-.275-1.315z" fill="#111"/><path d="m35.479 192.598-16.419 17.921c-3.329-.34-6.009-2.549-6.88-5.331l16.42-17.921c.87 2.782 3.551 4.992 6.879 5.331" fill="#3658c1"/><path d="m19.06 211.519c-.034 0-.068-.002-.102-.005-3.612-.369-6.719-2.791-7.732-6.028-.106-.34-.024-.711.217-.974l16.419-17.921c.242-.264.606-.378.955-.301.349.078.63.336.737.677.777 2.484 3.199 4.347 6.027 4.635.376.038.698.286.833.639s.058.752-.197 1.031l-16.419 17.921c-.191.21-.459.326-.738.326zm-5.732-6.103c.877 2.079 2.931 3.636 5.348 4.043l14.876-16.237c-2.25-.693-4.156-2.196-5.252-4.147z" fill="#111"/><path d="m125.661 288.753-16.419 17.921c-.972 1.061-2.444 1.513-4.013 1.34-1.138-.125-2.328-.58-3.415-1.368l16.419-17.921c1.087.788 2.277 1.243 3.415 1.368 1.569.173 3.04-.279 4.013-1.34" fill="#3658c1"/><path d="m105.872 309.05c-.248 0-.499-.014-.752-.042-1.351-.149-2.697-.686-3.893-1.553-.231-.167-.379-.425-.408-.709s.065-.566.258-.776l16.419-17.921c.343-.375.913-.432 1.324-.134.915.664 1.93 1.073 2.937 1.184 1.284.141 2.437-.229 3.162-1.018l.004-.004c.373-.408 1.006-.435 1.413-.062s.435 1.006.062 1.413 0 0-.001.001l-16.418 17.92c-1.007 1.1-2.476 1.701-4.107 1.701zm-2.501-2.623c.639.319 1.305.521 1.967.594 1.286.142 2.441-.231 3.166-1.022l13.625-14.871c-.195-.005-.392-.018-.591-.04-1.074-.118-2.146-.482-3.14-1.062z" fill="#111"/><path d="m83.68 257.992-16.419 17.921 14.036-33.742 16.419-17.921z" fill="#3658c1"/><path d="m67.26 276.913c-.185 0-.372-.051-.537-.157-.409-.261-.572-.779-.385-1.227l14.036-33.742c.045-.107.108-.206.186-.292l16.419-17.921c.328-.358.866-.429 1.275-.167.409.261.572.779.385 1.227l-14.036 33.742c-.045.107-.108.206-.186.292l-16.419 17.921c-.195.213-.465.324-.738.324zm14.893-34.196-11.781 28.319 12.451-13.59 11.781-28.319zm1.527 15.275h.01z" fill="#111"/><path d="m118.233 288.725-16.419 17.921-31.834-23.01 16.419-17.921z" fill="#3658c1"/><path d="m101.814 307.646c-.204 0-.409-.062-.585-.189l-31.834-23.01c-.231-.167-.38-.425-.409-.709s.065-.566.258-.777l16.419-17.921c.343-.374.912-.433 1.323-.135l31.834 23.01c.231.167.38.425.409.709s-.065.566-.258.777l-16.419 17.921c-.197.213-.466.324-.738.324zm-30.338-24.163 30.202 21.831 15.059-16.436-30.202-21.831z" fill="#111"/><path d="m86.399 265.715-16.419 17.921c-2.7-1.959-3.889-5.309-2.719-7.723l16.419-17.921c-1.17 2.414.019 5.764 2.719 7.723" fill="#3658c1"/><path d="m69.979 284.636c-.204 0-.41-.062-.587-.191-3.112-2.257-4.415-6.113-3.032-8.968.042-.087.097-.168.163-.24l16.419-17.921c.335-.366.888-.431 1.299-.152s.555.817.338 1.263c-.951 1.963.106 4.808 2.406 6.477.231.167.379.425.408.709s-.065.566-.258.776l-16.419 17.921c-.195.215-.465.326-.737.326zm-1.875-8.163c-.758 1.747.005 4.134 1.779 5.789l15.067-16.445c-1.47-1.361-2.398-3.106-2.65-4.838z" fill="#111"/><path d="m333.794 165.264c.931 2.973-.524 5.602-3.347 6.069l-37.403 8.036c.672 10.778-.288 21.211-2.798 30.982l33.993 30.281c2.579 2.15 3.476 5.51 2.078 7.775l-16.402 26.489c-.915 1.467-2.622 2.137-4.476 1.933-.983-.108-2.007-.462-2.976-1.074l-38.898-22.374c-7.421 6.236-15.996 11.155-25.473 14.6l7.395 40.41c.681 2.987-1.025 5.444-3.923 5.658l-34.14 2.449c-.348.026-.699.018-1.049-.021-2.569-.283-5.106-2.225-6.142-4.812l-17.56-39.686c-11.162-1.948-22.357-5.438-33.239-10.37l-23.559 26.889c-.962 1.241-2.537 1.778-4.225 1.592-1.138-.125-2.328-.58-3.415-1.368l-31.834-23.01c-2.7-1.959-3.889-5.309-2.719-7.723l14.036-33.742c-8.382-9.003-15.64-18.846-21.571-29.24l-40.666-2.412c-3.329-.34-6.009-2.549-6.88-5.331l-10.911-34.995c-.909-2.971.543-5.62 3.347-6.07l37.403-8.035c-.651-10.776.288-21.212 2.819-30.98l-33.996-30.3c-2.576-2.13-3.497-5.512-2.097-7.757l16.423-26.486c.914-1.482 2.614-2.149 4.47-1.944.981.108 2.006.46 2.98 1.064l38.88 22.393c7.418-6.256 15.993-11.175 25.471-14.621l-7.374-40.409c-.682-2.987 1.028-5.423 3.926-5.637l34.116-2.472c.348-.026.698-.018 1.049.02 2.573.284 5.125 2.23 6.145 4.833l17.558 39.665c11.162 1.948 22.36 5.459 33.239 10.37l23.559-26.889c.958-1.236 2.525-1.767 4.206-1.582 1.145.126 2.343.585 3.437 1.378l31.853 22.991c2.7 1.958 3.891 5.33 2.719 7.723l-14.033 33.763c8.358 8.98 15.619 18.844 21.549 29.238l40.663 2.392c3.35.342 6.03 2.551 6.901 5.333zm-147.401 75.284c46.028 5.075 78.573-27.426 72.691-72.591s-47.965-85.894-93.993-90.969-78.573 27.426-72.691 72.592c5.882 45.164 47.965 85.893 93.993 90.968" fill="#b0c3ff"/><path d="m207.019 317.515c-.249 0-.501-.014-.754-.042-2.947-.325-5.81-2.559-6.961-5.434l-17.331-39.165c-10.855-1.941-21.706-5.319-32.276-10.046l-23.071 26.332c-1.114 1.44-2.98 2.159-5.087 1.927-1.351-.149-2.697-.686-3.892-1.553l-31.833-23.009c-3.114-2.259-4.417-6.114-3.033-8.969l13.766-33.097c-8.119-8.79-15.18-18.367-21-28.483l-40.126-2.38c-3.654-.372-6.762-2.795-7.775-6.031l-10.911-34.996c-.556-1.817-.378-3.591.5-5 .791-1.269 2.085-2.105 3.644-2.355l36.515-7.846c-.548-10.395.375-20.427 2.747-29.841l-33.543-29.896c-2.965-2.45-3.957-6.344-2.28-9.032l16.422-26.484c1.088-1.764 3.12-2.667 5.429-2.411 1.152.127 2.327.544 3.397 1.208l38.248 22.028c7.17-5.942 15.386-10.666 24.442-14.053l-7.223-39.582c-.397-1.734-.094-3.425.863-4.719.907-1.228 2.318-1.972 3.973-2.094l34.117-2.472c.403-.03.818-.022 1.231.024 2.97.327 5.835 2.573 6.966 5.462l17.326 39.138c10.786 1.929 21.638 5.308 32.275 10.047l23.073-26.333c1.107-1.432 2.969-2.149 5.067-1.917 1.358.15 2.711.69 3.915 1.563l31.851 22.99c3.125 2.267 4.427 6.124 3.032 8.973l-13.762 33.114c8.09 8.762 15.144 18.338 20.978 28.48l40.123 2.36c3.668.373 6.784 2.796 7.797 6.033l10.893 35.015c.562 1.798.396 3.56-.467 4.963-.788 1.28-2.092 2.129-3.672 2.39l-36.519 7.847c.562 10.313-.355 20.345-2.728 29.842l33.54 29.878c2.943 2.453 3.927 6.351 2.265 9.047l-16.403 26.49c-1.097 1.759-3.13 2.655-5.436 2.401-1.16-.128-2.335-.55-3.4-1.222l-38.26-22.006c-7.187 5.935-15.402 10.651-24.443 14.034l7.244 39.583c.398 1.741.092 3.44-.87 4.741-.908 1.229-2.316 1.972-3.964 2.094l-34.142 2.449c-.158.01-.317.015-.477.015zm-57.586-56.903c.139 0 .28.029.413.089 10.8 4.895 21.902 8.359 32.998 10.296.329.057.607.275.743.581l17.56 39.686c.903 2.252 3.092 3.975 5.337 4.222.294.032.584.039.866.018l34.141-2.449c1.056-.078 1.945-.535 2.501-1.287.61-.825.794-1.944.519-3.15l-7.404-40.453c-.087-.48.184-.953.642-1.12 9.36-3.403 17.829-8.257 25.172-14.427.321-.271.778-.31 1.142-.101l38.898 22.374c.845.531 1.727.852 2.587.947 1.521.168 2.84-.381 3.519-1.469l16.4-26.486c1.124-1.822.303-4.669-1.869-6.48l-34.018-30.303c-.28-.249-.396-.633-.304-.995 2.5-9.731 3.431-20.05 2.769-30.671-.031-.494.304-.936.788-1.04l37.403-8.036c1.062-.177 1.855-.684 2.342-1.474.555-.903.648-2.081.261-3.319 0 0 0-.001-.001-.001l-10.892-35.014c-.776-2.482-3.207-4.346-6.047-4.635l-40.62-2.388c-.338-.02-.643-.209-.81-.503-5.914-10.365-13.118-20.14-21.413-29.052-.267-.287-.342-.703-.191-1.065l14.034-33.763c.983-2.012-.075-4.855-2.383-6.53l-31.851-22.99c-.924-.671-1.947-1.083-2.96-1.195-1.392-.152-2.597.284-3.306 1.2l-23.598 26.935c-.29.331-.762.434-1.164.252-10.873-4.908-21.975-8.372-32.999-10.296-.329-.057-.607-.275-.742-.58l-17.559-39.667c-.888-2.265-3.077-3.994-5.34-4.243-.292-.032-.583-.038-.866-.017l-34.117 2.472c-1.062.079-1.954.536-2.51 1.288-.605.818-.787 1.929-.513 3.129l7.382 40.451c.088.48-.184.953-.642 1.119-9.376 3.409-17.844 8.27-25.167 14.446-.322.271-.78.312-1.144.102l-38.88-22.393c-.846-.523-1.733-.842-2.591-.936-1.548-.171-2.825.367-3.509 1.476l-16.424 26.488c-1.132 1.814-.303 4.65 1.884 6.459l34.024 30.326c.28.25.397.635.303.997-2.498 9.64-3.436 19.959-2.789 30.669.03.493-.305.934-.788 1.038l-37.403 8.035c-1.045.169-1.827.666-2.314 1.448-.568.91-.669 2.101-.286 3.352l10.909 34.99c.777 2.483 3.199 4.346 6.027 4.634l40.624 2.409c.337.02.642.209.809.503 5.897 10.337 13.109 20.112 21.434 29.054.267.287.342.704.191 1.065l-14.036 33.742c-.975 2.015.083 4.86 2.383 6.529l31.833 23.009c.916.665 1.932 1.074 2.939 1.185 1.4.154 2.61-.288 3.325-1.211l23.597-26.936c.192-.221.469-.34.751-.34zm46.385-18.537c-3.12 0-6.301-.177-9.534-.533-46.385-5.114-88.947-46.31-94.875-91.833-2.852-21.9 3.09-41.623 16.731-55.535 13.963-14.24 34.227-20.696 57.061-18.179 46.385 5.114 88.946 46.311 94.875 91.834 2.852 21.899-3.09 41.622-16.731 55.535-11.987 12.223-28.616 18.711-47.527 18.711zm-40.144-164.613c-18.375 0-34.505 6.279-46.107 18.112-13.202 13.465-18.947 32.599-16.176 53.877 5.817 44.664 47.587 85.084 93.111 90.104 22.214 2.449 41.89-3.799 55.414-17.592 13.203-13.465 18.947-32.599 16.176-53.876-5.817-44.664-47.586-85.085-93.111-90.104-3.156-.349-6.264-.521-9.307-.521z" fill="#111"/></svg>