<svg enable-background="new 0 0 400.122 222.342" height="223" viewBox="0 0 400.122 222.342" width="401" xmlns="http://www.w3.org/2000/svg"><path d="m335.97 66-15.862 33.197-68.729-12.607 15.861-33.197z" fill="#3658c1"/><path d="m320.109 100.197c-.06 0-.12-.005-.181-.016l-68.73-12.607c-.306-.056-.569-.252-.71-.529-.142-.277-.146-.605-.012-.886l15.861-33.197c.195-.408.639-.633 1.083-.552l68.73 12.607c.306.056.569.252.71.529.142.277.146.605.012.886l-15.862 33.197c-.168.352-.522.568-.901.568zm-67.265-14.355 66.692 12.233 14.968-31.328-66.692-12.233z" fill="#111"/><path d="m255.74 45.702-8.46-14.534c-1.592-2.736-1.83-5.519-.749-7.781l-15.861 33.197c-1.081 2.263-.843 5.046.749 7.781l8.459 14.534c2.213 3.802 6.718 6.822 11.5 7.691l15.861-33.198c-4.781-.868-9.286-3.888-11.499-7.69z" fill="#3658c1"/><path d="m251.379 87.59c-.059 0-.119-.005-.179-.016-5.047-.917-9.83-4.125-12.186-8.172l-8.459-14.534c-1.754-3.012-2.033-6.108-.787-8.716l15.858-33.189c.001-.003.002-.005.004-.008.238-.498.836-.709 1.333-.471.498.238.709.835.471 1.333l-.003.006c-.948 1.991-.695 4.42.714 6.841l8.46 14.534c2.073 3.563 6.318 6.393 10.814 7.21.307.056.57.251.712.529s.146.605.012.886l-15.861 33.198c-.169.352-.523.569-.903.569zm-6.234-58.982-13.573 28.407c-.952 1.992-.699 4.424.711 6.847l8.459 14.534c1.959 3.366 5.856 6.078 10.071 7.056l14.98-31.355c-4.568-1.184-8.761-4.186-10.918-7.893l-8.46-14.534c-.592-1.018-1.016-2.047-1.27-3.062z" fill="#111"/><path d="m396.619 69.558-73.856 61.031-15.861 33.198 73.856-61.031c.806-.661 1.421-1.449 1.839-2.324l15.861-33.198c-.418.875-1.033 1.664-1.839 2.324z" fill="#3658c1"/><path d="m306.901 164.786c-.217 0-.434-.07-.615-.212-.37-.289-.489-.796-.287-1.219l15.861-33.198c.063-.131.153-.247.265-.34l73.856-61.031c.001-.001.002-.002.003-.003.678-.555 1.205-1.219 1.567-1.975l.003-.007c.238-.498.835-.709 1.333-.471s.709.835.471 1.333c-.001.001-.001.003-.002.004l-15.859 33.193c-.49 1.024-1.198 1.921-2.107 2.666l-73.854 61.028c-.182.156-.408.232-.635.232zm16.669-33.567-13.813 28.91 70.364-58.145c.683-.56 1.212-1.227 1.573-1.985l13.273-27.78z" fill="#111"/><path d="m252.576 19.142c1.624-.316 3.442-.312 5.343.043l122.629 22.762c4.772.89 9.277 3.91 11.469 7.677l5.708 9.807c2.203 3.785 1.773 7.766-1.107 10.126l-73.856 61.031c-1.12.93-2.575 1.589-4.207 1.907-2.089.407-4.429.269-6.78-.381-4.279-1.184-8.029-3.936-10.015-7.347l-8.46-14.534c-2.213-3.802-1.773-7.765 1.116-10.148l41.554-34.085-68.73-12.607c-4.782-.869-9.287-3.889-11.5-7.691l-8.46-14.534c-1.986-3.411-1.865-6.897.293-9.355 1.211-1.361 2.953-2.272 5.003-2.671z" fill="#b0c3ff"/><path d="m316.095 133.725c-1.483 0-3.033-.216-4.586-.646-4.529-1.254-8.496-4.172-10.612-7.808l-8.46-14.534c-2.464-4.233-1.936-8.717 1.344-11.423l39.886-32.72-66.607-12.217c-5.045-.917-9.828-4.125-12.184-8.172l-8.46-14.534c-2.204-3.786-2.052-7.718.406-10.517 1.344-1.512 3.267-2.546 5.563-2.993 1.785-.348 3.709-.334 5.718.042l122.628 22.762c5.045.941 9.814 4.143 12.151 8.157l5.708 9.808c2.467 4.238 1.942 8.714-1.337 11.403l-73.853 61.027c-1.246 1.035-2.856 1.768-4.653 2.118-.849.165-1.738.247-2.652.247zm-63.327-113.602c-1.862.363-3.399 1.177-4.446 2.354-1.859 2.117-1.927 5.18-.177 8.187l8.46 14.534c2.074 3.563 6.319 6.393 10.814 7.21l68.732 12.607c.383.07.69.356.788.734.097.377-.033.776-.334 1.023l-41.552 34.086c-2.521 2.079-2.861 5.479-.886 8.872l8.46 14.534c1.86 3.195 5.38 5.769 9.417 6.886 2.213.612 4.399.738 6.322.363 1.469-.286 2.769-.872 3.759-1.695l73.858-61.032c2.482-2.035 2.826-5.509.879-8.852l-5.708-9.808c-2.057-3.533-6.291-6.358-10.789-7.197l-122.628-22.761c-1.737-.325-3.454-.34-4.969-.045zm-.192-.981h.01z" fill="#111"/><path d="m318.556 132.496c-2.089.407-4.429.269-6.779-.381-4.279-1.184-8.029-3.935-10.015-7.347l-8.46-14.534c-1.591-2.734-1.811-5.551-.734-7.804l-15.862 33.198c-1.076 2.253-.857 5.07.734 7.804l8.46 14.534c1.986 3.411 5.736 6.163 10.015 7.347 2.35.65 4.69.787 6.779.381 1.632-.318 3.087-.977 4.207-1.907l15.861-33.198c-1.12.93-2.575 1.589-4.206 1.907z" fill="#3658c1"/><path d="m300.234 166.922c-1.484 0-3.033-.216-4.586-.646-4.529-1.254-8.496-4.172-10.612-7.808l-8.46-14.534c-1.727-2.967-2.008-6.152-.772-8.739l15.862-33.198c.238-.498.835-.708 1.333-.471.498.238.709.835.471 1.333l-.001.002c-.945 1.98-.691 4.483.697 6.867l8.46 14.534c1.859 3.194 5.379 5.769 9.417 6.886 2.213.612 4.399.738 6.322.363 1.469-.287 2.77-.873 3.76-1.695.362-.3.883-.308 1.253-.02.371.289.49.796.288 1.22l-15.862 33.198c-.062.13-.152.246-.263.338-1.247 1.036-2.857 1.769-4.655 2.12-.849.168-1.738.25-2.652.25zm-9.056-59.264-13.57 28.4c-.946 1.98-.692 4.484.696 6.87l8.46 14.534c1.86 3.194 5.38 5.769 9.417 6.886 2.212.612 4.397.737 6.322.363 1.389-.271 2.626-.81 3.594-1.562l14.41-30.159c-.56.204-1.149.367-1.76.487-2.225.434-4.727.296-7.237-.398-4.53-1.254-8.497-4.173-10.612-7.808l-8.46-14.534c-.589-1.011-1.01-2.049-1.26-3.079zm27.378 24.838h.01z" fill="#111"/><path d="m167.809 13.313c-.394-1.771-.216-3.414.451-4.809l-15.861 33.198c-.667 1.396-.845 3.038-.451 4.809l36.303 163.885 15.861-33.197z" fill="#3658c1"/><path d="m188.251 211.396c-.038 0-.076-.002-.114-.006-.424-.049-.771-.361-.863-.777l-36.303-163.886c-.433-1.945-.251-3.832.525-5.457l15.862-33.198c.238-.498.835-.708 1.333-.471.498.238.709.835.471 1.333-.582 1.217-.712 2.656-.377 4.161v.001l36.303 163.886c.048.218.022.446-.074.647l-15.862 33.197c-.167.351-.52.57-.901.57zm-21.376-197.675-13.575 28.412c-.581 1.217-.712 2.656-.377 4.161l35.676 161.053 14.462-30.267z" fill="#111"/><path d="m190.042 1.229c3.502-.682 7.704.181 11.232 2.283 3.558 2.116 6.078 5.265 6.78 8.452l36.044 163.935c.968 4.441-1.647 8.056-6.523 9.005l-15.462 3.011c-3.482.678-7.674-.167-11.222-2.265-3.538-2.12-6.058-5.269-6.78-8.452l-36.302-163.884c-.987-4.437 1.617-8.069 6.493-9.019z" fill="#b0c3ff"/><path d="m219.657 189.144c-3.069 0-6.382-.922-9.274-2.633-3.758-2.252-6.465-5.649-7.247-9.091l-36.304-163.89c-.519-2.333-.165-4.526 1.023-6.341 1.286-1.964 3.508-3.34 6.255-3.875l15.74-3.066c3.727-.727 8.189.173 11.935 2.405 3.776 2.246 6.484 5.646 7.245 9.096l36.044 163.936c.509 2.334.148 4.522-1.042 6.33-1.29 1.961-3.515 3.335-6.267 3.871l-15.462 3.011c-.847.166-1.736.247-2.646.247zm-27.141-187.146c-.786 0-1.552.07-2.283.212l-15.74 3.066c-2.245.438-3.962 1.478-4.964 3.008-.886 1.353-1.143 3.017-.744 4.812l36.303 163.886c.662 2.915 3.024 5.836 6.318 7.81 3.335 1.973 7.267 2.774 10.517 2.142l15.462-3.011c2.251-.438 3.972-1.478 4.978-3.007.887-1.349 1.15-3.01.759-4.803l-36.044-163.934c-.644-2.92-3.005-5.838-6.315-7.807-2.587-1.542-5.535-2.374-8.247-2.374zm-2.474-.769h.01z" fill="#111"/><path d="m237.575 184.904-15.462 3.012c-3.482.678-7.674-.167-11.221-2.265-3.538-2.12-6.058-5.269-6.781-8.451l-15.861 33.197c.722 3.182 3.243 6.332 6.781 8.451 3.548 2.099 7.739 2.944 11.221 2.265l15.462-3.011c2.939-.572 5.057-2.113 6.063-4.22l15.861-33.197c-1.006 2.106-3.123 3.647-6.063 4.219z" fill="#3658c1"/><path d="m203.794 222.341c-3.069 0-6.381-.922-9.273-2.633-3.758-2.251-6.465-5.648-7.247-9.091-.05-.219-.024-.449.073-.653l15.861-33.197c.184-.385.594-.611 1.013-.563.423.047.77.357.864.772.663 2.92 3.026 5.842 6.32 7.815 3.335 1.972 7.267 2.773 10.516 2.141l15.462-3.012c2.557-.498 4.457-1.799 5.35-3.665l.002-.005c.239-.498.836-.708 1.333-.471.498.238.709.835.471 1.333-.001.003-.003.006-.004.01l-15.857 33.188c-1.172 2.454-3.578 4.148-6.774 4.771l-15.462 3.011c-.849.168-1.737.249-2.648.249zm-14.487-11.838c.76 2.81 3.067 5.587 6.238 7.486 3.334 1.973 7.266 2.774 10.516 2.142l15.462-3.011c2.559-.499 4.46-1.802 5.352-3.67l13.58-28.423c-.814.38-1.715.669-2.689.858l-15.462 3.012c-3.715.724-8.172-.168-11.922-2.386-2.886-1.729-5.153-4.135-6.403-6.717z" fill="#111"/><path d="m121.538 81.771-41.532 34.082-15.862 33.197 41.532-34.082c.819-.668 1.443-1.466 1.866-2.351l15.862-33.198c-.424.886-1.047 1.684-1.866 2.352z" fill="#3658c1"/><path d="m64.144 150.05c-.218 0-.436-.071-.617-.213-.369-.289-.488-.795-.286-1.218l15.862-33.198c.063-.132.155-.249.268-.342l41.532-34.082c.001-.001.002-.001.002-.002.692-.564 1.229-1.239 1.595-2.007.238-.498.836-.709 1.333-.471.499.238.709.835.471 1.333-.002.004-.004.008-.005.011l-15.856 33.186c-.495 1.035-1.213 1.942-2.136 2.695l-41.53 34.081c-.183.151-.408.227-.633.227zm16.668-33.565-13.828 28.942 38.058-31.231c.694-.567 1.231-1.242 1.598-2.01l13.28-27.793z" fill="#111"/><path d="m169.453 158.445-15.861 33.197c-.272.57-.629 1.106-1.071 1.599-1.172 1.336-2.911 2.268-5.001 2.675-1.632.318-3.48.302-5.325-.051l15.861-33.197c1.845.353 3.693.368 5.325.051 2.089-.407 3.829-1.339 5.001-2.675.442-.493.799-1.029 1.071-1.599" fill="#3658c1"/><path d="m145.07 197.143c-1.002 0-2.033-.099-3.063-.296-.304-.058-.565-.254-.705-.531s-.143-.603-.01-.882l15.861-33.197c.196-.41.645-.636 1.09-.551 1.72.329 3.43.347 4.946.052 1.875-.365 3.41-1.179 4.44-2.353.38-.424.687-.883.92-1.371.238-.498.835-.709 1.333-.471s.709.835.471 1.333c-.001.003-.003.005-.004.008l-15.858 33.189c-.315.659-.728 1.277-1.228 1.834-1.318 1.503-3.241 2.539-5.555 2.99-.838.164-1.726.246-2.638.246zm-1.388-2.07c1.273.129 2.514.083 3.646-.138 1.875-.365 3.41-1.179 4.44-2.353.38-.424.687-.883.92-1.37l13.555-28.37c-.812.382-1.708.671-2.671.859-1.535.299-3.228.324-4.938.078z" fill="#111"/><path d="m158.057 162.668-15.862 33.197-122.629-22.762 15.862-33.197z" fill="#3658c1"/><path d="m142.196 196.865c-.061 0-.122-.005-.183-.017l-122.629-22.762c-.306-.057-.568-.252-.708-.53-.141-.277-.145-.604-.011-.885l15.862-33.197c.195-.408.64-.634 1.085-.552l122.629 22.762c.306.057.568.252.708.53.141.277.145.604.011.885l-15.861 33.197c-.17.352-.524.569-.903.569zm-121.165-24.507 120.593 22.384 14.969-31.329-120.594-22.384z" fill="#111"/><path d="m23.958 132.229-5.708-9.807c-1.582-2.717-1.799-5.546-.72-7.804l-15.861 33.197c-1.079 2.258-.862 5.086.72 7.804l5.708 9.807c2.203 3.785 6.708 6.805 11.469 7.678l15.861-33.198c-4.761-.873-9.266-3.893-11.469-7.677z" fill="#3658c1"/><path d="m19.567 174.103c-.06 0-.12-.005-.181-.016-5.036-.923-9.806-4.125-12.154-8.158l-5.708-9.806c-1.721-2.958-1.998-6.143-.758-8.739l15.858-33.191c.001-.002.002-.005.003-.007.238-.498.836-.709 1.333-.471.498.238.709.835.471 1.333-.951 1.989-.702 4.493.682 6.87l5.708 9.808c2.067 3.55 6.3 6.375 10.785 7.196.306.056.569.252.71.529s.146.605.012.886l-15.861 33.198c-.166.351-.52.568-.9.568zm-3.434-54.243-13.562 28.386c-.95 1.989-.702 4.493.682 6.87l5.708 9.806c1.951 3.354 5.836 6.06 10.041 7.042l14.981-31.356c-4.556-1.187-8.739-4.183-10.889-7.877l-5.708-9.808c-.586-1.004-1.004-2.036-1.253-3.063z" fill="#111"/><path d="m97.414 49.362c2.045-.398 4.378-.281 6.766.38 4.309 1.198 8.049 3.932 10.034 7.343l8.46 14.534c2.213 3.802 1.763 7.787-1.136 10.152l-41.532 34.082 68.71 12.611c4.792.887 9.306 3.885 11.52 7.687l8.46 14.534c1.986 3.411 1.876 6.914-.313 9.358-1.172 1.336-2.911 2.268-5.001 2.675-1.632.318-3.48.302-5.325-.051l-122.629-22.761c-4.762-.872-9.267-3.892-11.469-7.677l-5.708-9.807c-2.193-3.767-1.762-7.748 1.107-10.126l73.856-61.031c1.141-.949 2.58-1.588 4.2-1.903z" fill="#b0c3ff"/><path d="m160.932 163.946c-1.002 0-2.033-.099-3.063-.296l-122.624-22.761c-5.033-.922-9.804-4.124-12.151-8.157l-5.708-9.808c-2.455-4.218-1.932-8.693 1.333-11.399l73.857-61.032c1.261-1.047 2.825-1.758 4.647-2.113 2.222-.433 4.72-.295 7.223.397 4.55 1.266 8.524 4.183 10.632 7.804l8.46 14.534c2.473 4.248 1.936 8.734-1.368 11.43l-39.863 32.713 66.59 12.222c5.072.939 9.862 4.145 12.203 8.168l8.46 14.534c2.219 3.812 2.057 7.748-.432 10.529-1.318 1.502-3.241 2.539-5.555 2.989-.841.164-1.729.246-2.641.246zm-63.327-113.603c-1.489.29-2.752.859-3.754 1.69l-73.858 61.032c-2.471 2.049-2.817 5.524-.88 8.853l5.708 9.807c2.066 3.55 6.3 6.374 10.785 7.196l122.631 22.763c1.725.329 3.435.347 4.951.052 1.875-.365 3.41-1.179 4.44-2.353 1.889-2.11 1.961-5.171.2-8.196l-8.46-14.534c-2.061-3.541-6.315-6.37-10.837-7.207l-68.709-12.611c-.383-.07-.69-.356-.788-.733s.033-.776.334-1.023l41.532-34.082c2.502-2.041 2.857-5.524.906-8.876l-8.46-14.534c-1.852-3.181-5.38-5.754-9.438-6.883-2.201-.609-4.382-.735-6.303-.361z" fill="#111"/></svg>